<svg xmlns="http://www.w3.org/2000/svg" width="560" height="300" viewBox="0 0 560 300">
<rect width="560" height="300" fill="#0e1111"/>
<polygon points="40,198 515,198 540,210 65,210" fill="#21262d"/>
<polygon points="65,210 540,210 548,215 73,215" fill="#30363d"/>
<g><polygon points="380.0,213.0 384.75,214.5 380.0,216.0 375.25,214.5" fill="#1a4785"/><polygon points="375.25,214.5 380.0,216.0 380.0,221.0 375.25,219.5" fill="#002955"/><polygon points="384.75,214.5 380.0,216.0 380.0,221.0 384.75,219.5" fill="#a06e18"/></g>
<g><polygon points="465.5,254.0 470.25,255.5 465.5,257.0 460.75,255.5" fill="#2b5fb3"/><polygon points="460.75,255.5 465.5,257.0 465.5,272.0 460.75,270.5" fill="#003d7a"/><polygon points="470.25,255.5 465.5,257.0 465.5,272.0 470.25,270.5" fill="#c48520"/></g>
<g><polygon points="456.0,268.0 460.75,269.5 456.0,271.0 451.25,269.5" fill="#1a4785"/><polygon points="451.25,269.5 456.0,271.0 456.0,275.0 451.25,273.5" fill="#002955"/><polygon points="460.75,269.5 456.0,271.0 456.0,275.0 460.75,273.5" fill="#a06e18"/></g>
<g><polygon points="475.0,266.0 479.75,267.5 475.0,269.0 470.25,267.5" fill="#1a4785"/><polygon points="470.25,267.5 475.0,269.0 475.0,275.0 470.25,273.5" fill="#002955"/><polygon points="479.75,267.5 475.0,269.0 475.0,275.0 479.75,273.5" fill="#a06e18"/></g>
<g><polygon points="465.5,245.0 470.25,246.5 465.5,248.0 460.75,246.5" fill="#4d8dff"/><polygon points="460.75,246.5 465.5,248.0 465.5,278.0 460.75,276.5" fill="#0066cc"/><polygon points="470.25,246.5 465.5,248.0 465.5,278.0 470.25,276.5" fill="#ffb347"/></g>
<g><polygon points="456.0,268.0 460.75,269.5 456.0,271.0 451.25,269.5" fill="#1a4785"/><polygon points="451.25,269.5 456.0,271.0 456.0,281.0 451.25,279.5" fill="#002955"/><polygon points="460.75,269.5 456.0,271.0 456.0,281.0 460.75,279.5" fill="#a06e18"/></g>
<g><polygon points="522.5,239.0 527.25,240.5 522.5,242.0 517.75,240.5" fill="#3d7fd9"/><polygon points="517.75,240.5 522.5,242.0 522.5,266.0 517.75,264.5" fill="#0052a3"/><polygon points="527.25,240.5 522.5,242.0 522.5,266.0 527.25,264.5" fill="#e09830"/></g>
<g><polygon points="513.0,259.0 517.75,260.5 513.0,262.0 508.25,260.5" fill="#1a4785"/><polygon points="508.25,260.5 513.0,262.0 513.0,269.0 508.25,267.5" fill="#002955"/><polygon points="517.75,260.5 513.0,262.0 513.0,269.0 517.75,267.5" fill="#a06e18"/></g>
<g><polygon points="503.5,254.0 508.25,255.5 503.5,257.0 498.75,255.5" fill="#2b5fb3"/><polygon points="498.75,255.5 503.5,257.0 503.5,272.0 498.75,270.5" fill="#003d7a"/><polygon points="508.25,255.5 503.5,257.0 503.5,272.0 508.25,270.5" fill="#c48520"/></g>
<g><polygon points="494.0,248.0 498.75,249.5 494.0,251.0 489.25,249.5" fill="#3d7fd9"/><polygon points="489.25,249.5 494.0,251.0 494.0,275.0 489.25,273.5" fill="#0052a3"/><polygon points="498.75,249.5 494.0,251.0 494.0,275.0 498.75,273.5" fill="#e09830"/></g>
<g><polygon points="484.5,232.0 489.25,233.5 484.5,235.0 479.75,233.5" fill="#4d8dff"/><polygon points="479.75,233.5 484.5,235.0 484.5,278.0 479.75,276.5" fill="#0066cc"/><polygon points="489.25,233.5 484.5,235.0 484.5,278.0 489.25,276.5" fill="#ffb347"/></g>
<g><polygon points="475.0,262.0 479.75,263.5 475.0,265.0 470.25,263.5" fill="#2b5fb3"/><polygon points="470.25,263.5 475.0,265.0 475.0,281.0 470.25,279.5" fill="#003d7a"/><polygon points="479.75,263.5 475.0,265.0 475.0,281.0 479.75,279.5" fill="#c48520"/></g>
<g><polygon points="465.5,275.0 470.25,276.5 465.5,278.0 460.75,276.5" fill="#1a4785"/><polygon points="460.75,276.5 465.5,278.0 465.5,284.0 460.75,282.5" fill="#002955"/><polygon points="470.25,276.5 465.5,278.0 465.5,284.0 470.25,282.5" fill="#a06e18"/></g>
<g><polygon points="532.0,259.0 536.75,260.5 532.0,262.0 527.25,260.5" fill="#1a4785"/><polygon points="527.25,260.5 532.0,262.0 532.0,269.0 527.25,267.5" fill="#002955"/><polygon points="536.75,260.5 532.0,262.0 532.0,269.0 536.75,267.5" fill="#a06e18"/></g>
<g><polygon points="522.5,247.0 527.25,248.5 522.5,250.0 517.75,248.5" fill="#3d7fd9"/><polygon points="517.75,248.5 522.5,250.0 522.5,272.0 517.75,270.5" fill="#0052a3"/><polygon points="527.25,248.5 522.5,250.0 522.5,272.0 527.25,270.5" fill="#e09830"/></g>
<g><polygon points="513.0,268.0 517.75,269.5 513.0,271.0 508.25,269.5" fill="#1a4785"/><polygon points="508.25,269.5 513.0,271.0 513.0,275.0 508.25,273.5" fill="#002955"/><polygon points="517.75,269.5 513.0,271.0 513.0,275.0 517.75,273.5" fill="#a06e18"/></g>
<g><polygon points="494.0,268.0 498.75,269.5 494.0,271.0 489.25,269.5" fill="#1a4785"/><polygon points="489.25,269.5 494.0,271.0 494.0,281.0 489.25,279.5" fill="#002955"/><polygon points="498.75,269.5 494.0,271.0 494.0,281.0 498.75,279.5" fill="#a06e18"/></g>
<g><polygon points="484.5,265.0 489.25,266.5 484.5,268.0 479.75,266.5" fill="#2b5fb3"/><polygon points="479.75,266.5 484.5,268.0 484.5,284.0 479.75,282.5" fill="#003d7a"/><polygon points="489.25,266.5 484.5,268.0 484.5,284.0 489.25,282.5" fill="#c48520"/></g>
<g><polygon points="475.0,279.0 479.75,280.5 475.0,282.0 470.25,280.5" fill="#1a4785"/><polygon points="470.25,280.5 475.0,282.0 475.0,287.0 470.25,285.5" fill="#002955"/><polygon points="479.75,280.5 475.0,282.0 475.0,287.0 479.75,285.5" fill="#a06e18"/></g>
<g><polygon points="541.5,215.0 546.25,216.5 541.5,218.0 536.75,216.5" fill="#4d8dff"/><polygon points="536.75,216.5 541.5,218.0 541.5,272.0 536.75,270.5" fill="#0066cc"/><polygon points="546.25,216.5 541.5,218.0 541.5,272.0 546.25,270.5" fill="#ffb347"/></g>
<g><polygon points="532.0,263.0 536.75,264.5 532.0,266.0 527.25,264.5" fill="#1a4785"/><polygon points="527.25,264.5 532.0,266.0 532.0,275.0 527.25,273.5" fill="#002955"/><polygon points="536.75,264.5 532.0,266.0 532.0,275.0 536.75,273.5" fill="#a06e18"/></g>
<g><polygon points="522.5,267.0 527.25,268.5 522.5,270.0 517.75,268.5" fill="#1a4785"/><polygon points="517.75,268.5 522.5,270.0 522.5,278.0 517.75,276.5" fill="#002955"/><polygon points="527.25,268.5 522.5,270.0 522.5,278.0 527.25,276.5" fill="#a06e18"/></g>
<g><polygon points="513.0,272.0 517.75,273.5 513.0,275.0 508.25,273.5" fill="#1a4785"/><polygon points="508.25,273.5 513.0,275.0 513.0,281.0 508.25,279.5" fill="#002955"/><polygon points="517.75,273.5 513.0,275.0 513.0,281.0 517.75,279.5" fill="#a06e18"/></g>
<g><polygon points="503.5,275.0 508.25,276.5 503.5,278.0 498.75,276.5" fill="#1a4785"/><polygon points="498.75,276.5 503.5,278.0 503.5,284.0 498.75,282.5" fill="#002955"/><polygon points="508.25,276.5 503.5,278.0 503.5,284.0 508.25,282.5" fill="#a06e18"/></g>
<g><polygon points="494.0,269.0 498.75,270.5 494.0,272.0 489.25,270.5" fill="#2b5fb3"/><polygon points="489.25,270.5 494.0,272.0 494.0,287.0 489.25,285.5" fill="#003d7a"/><polygon points="498.75,270.5 494.0,272.0 494.0,287.0 498.75,285.5" fill="#c48520"/></g>
<g><polygon points="484.5,249.0 489.25,250.5 484.5,252.0 479.75,250.5" fill="#4d8dff"/><polygon points="479.75,250.5 484.5,252.0 484.5,290.0 479.75,288.5" fill="#0066cc"/><polygon points="489.25,250.5 484.5,252.0 484.5,290.0 489.25,288.5" fill="#ffb347"/></g>
<g><polygon points="541.5,245.0 546.25,246.5 541.5,248.0 536.75,246.5" fill="#4d8dff"/><polygon points="536.75,246.5 541.5,248.0 541.5,278.0 536.75,276.5" fill="#0066cc"/><polygon points="546.25,246.5 541.5,248.0 541.5,278.0 546.25,276.5" fill="#ffb347"/></g>
<g><polygon points="532.0,274.0 536.75,275.5 532.0,277.0 527.25,275.5" fill="#1a4785"/><polygon points="527.25,275.5 532.0,277.0 532.0,281.0 527.25,279.5" fill="#002955"/><polygon points="536.75,275.5 532.0,277.0 532.0,281.0 536.75,279.5" fill="#a06e18"/></g>
<g><polygon points="522.5,259.0 527.25,260.5 522.5,262.0 517.75,260.5" fill="#3d7fd9"/><polygon points="517.75,260.5 522.5,262.0 522.5,284.0 517.75,282.5" fill="#0052a3"/><polygon points="527.25,260.5 522.5,262.0 522.5,284.0 527.25,282.5" fill="#e09830"/></g>
<g><polygon points="513.0,276.0 517.75,277.5 513.0,279.0 508.25,277.5" fill="#1a4785"/><polygon points="508.25,277.5 513.0,279.0 513.0,287.0 508.25,285.5" fill="#002955"/><polygon points="517.75,277.5 513.0,279.0 513.0,287.0 517.75,285.5" fill="#a06e18"/></g>
<g><polygon points="494.0,286.0 498.75,287.5 494.0,289.0 489.25,287.5" fill="#1a4785"/><polygon points="489.25,287.5 494.0,289.0 494.0,293.0 489.25,291.5" fill="#002955"/><polygon points="498.75,287.5 494.0,289.0 494.0,293.0 498.75,291.5" fill="#a06e18"/></g>
<g><polygon points="560.5,270.0 565.25,271.5 560.5,273.0 555.75,271.5" fill="#1a4785"/><polygon points="555.75,271.5 560.5,273.0 560.5,278.0 555.75,276.5" fill="#002955"/><polygon points="565.25,271.5 560.5,273.0 560.5,278.0 565.25,276.5" fill="#a06e18"/></g>
<g><polygon points="551.0,274.0 555.75,275.5 551.0,277.0 546.25,275.5" fill="#1a4785"/><polygon points="546.25,275.5 551.0,277.0 551.0,281.0 546.25,279.5" fill="#002955"/><polygon points="555.75,275.5 551.0,277.0 551.0,281.0 555.75,279.5" fill="#a06e18"/></g>
<g><polygon points="541.5,277.0 546.25,278.5 541.5,280.0 536.75,278.5" fill="#1a4785"/><polygon points="536.75,278.5 541.5,280.0 541.5,284.0 536.75,282.5" fill="#002955"/><polygon points="546.25,278.5 541.5,280.0 541.5,284.0 546.25,282.5" fill="#a06e18"/></g>
<g><polygon points="532.0,268.0 536.75,269.5 532.0,271.0 527.25,269.5" fill="#2b5fb3"/><polygon points="527.25,269.5 532.0,271.0 532.0,287.0 527.25,285.5" fill="#003d7a"/><polygon points="536.75,269.5 532.0,271.0 532.0,287.0 536.75,285.5" fill="#c48520"/></g>
<g><polygon points="522.5,280.0 527.25,281.5 522.5,283.0 517.75,281.5" fill="#1a4785"/><polygon points="517.75,281.5 522.5,283.0 522.5,290.0 517.75,288.5" fill="#002955"/><polygon points="527.25,281.5 522.5,283.0 522.5,290.0 527.25,288.5" fill="#a06e18"/></g>
<g><polygon points="513.0,285.0 517.75,286.5 513.0,288.0 508.25,286.5" fill="#1a4785"/><polygon points="508.25,286.5 513.0,288.0 513.0,293.0 508.25,291.5" fill="#002955"/><polygon points="517.75,286.5 513.0,288.0 513.0,293.0 517.75,291.5" fill="#a06e18"/></g>
<g><polygon points="503.5,283.0 508.25,284.5 503.5,286.0 498.75,284.5" fill="#1a4785"/><polygon points="498.75,284.5 503.5,286.0 503.5,296.0 498.75,294.5" fill="#002955"/><polygon points="508.25,284.5 503.5,286.0 503.5,296.0 508.25,294.5" fill="#a06e18"/></g>
<g><polygon points="570.0,273.0 574.75,274.5 570.0,276.0 565.25,274.5" fill="#1a4785"/><polygon points="565.25,274.5 570.0,276.0 570.0,281.0 565.25,279.5" fill="#002955"/><polygon points="574.75,274.5 570.0,276.0 570.0,281.0 574.75,279.5" fill="#a06e18"/></g>
<g><polygon points="560.5,273.0 565.25,274.5 560.5,276.0 555.75,274.5" fill="#1a4785"/><polygon points="555.75,274.5 560.5,276.0 560.5,284.0 555.75,282.5" fill="#002955"/><polygon points="565.25,274.5 560.5,276.0 560.5,284.0 565.25,282.5" fill="#a06e18"/></g>
<g><polygon points="551.0,268.0 555.75,269.5 551.0,271.0 546.25,269.5" fill="#2b5fb3"/><polygon points="546.25,269.5 551.0,271.0 551.0,287.0 546.25,285.5" fill="#003d7a"/><polygon points="555.75,269.5 551.0,271.0 551.0,287.0 555.75,285.5" fill="#c48520"/></g>
<g><polygon points="541.5,283.0 546.25,284.5 541.5,286.0 536.75,284.5" fill="#1a4785"/><polygon points="536.75,284.5 541.5,286.0 541.5,290.0 536.75,288.5" fill="#002955"/><polygon points="546.25,284.5 541.5,286.0 541.5,290.0 546.25,288.5" fill="#a06e18"/></g>
<g><polygon points="579.5,277.0 584.25,278.5 579.5,280.0 574.75,278.5" fill="#1a4785"/><polygon points="574.75,278.5 579.5,280.0 579.5,284.0 574.75,282.5" fill="#002955"/><polygon points="584.25,278.5 579.5,280.0 579.5,284.0 584.25,282.5" fill="#a06e18"/></g>
<g><polygon points="570.0,279.0 574.75,280.5 570.0,282.0 565.25,280.5" fill="#1a4785"/><polygon points="565.25,280.5 570.0,282.0 570.0,287.0 565.25,285.5" fill="#002955"/><polygon points="574.75,280.5 570.0,282.0 570.0,287.0 574.75,285.5" fill="#a06e18"/></g>
<g><polygon points="551.0,285.0 555.75,286.5 551.0,288.0 546.25,286.5" fill="#1a4785"/><polygon points="546.25,286.5 551.0,288.0 551.0,293.0 546.25,291.5" fill="#002955"/><polygon points="555.75,286.5 551.0,288.0 551.0,293.0 555.75,291.5" fill="#a06e18"/></g>
<g><polygon points="532.0,289.0 536.75,290.5 532.0,292.0 527.25,290.5" fill="#1a4785"/><polygon points="527.25,290.5 532.0,292.0 532.0,299.0 527.25,297.5" fill="#002955"/><polygon points="536.75,290.5 532.0,292.0 532.0,299.0 536.75,297.5" fill="#a06e18"/></g>
<g><polygon points="522.5,276.0 527.25,277.5 522.5,279.0 517.75,277.5" fill="#3d7fd9"/><polygon points="517.75,277.5 522.5,279.0 522.5,302.0 517.75,300.5" fill="#0052a3"/><polygon points="527.25,277.5 522.5,279.0 522.5,302.0 527.25,300.5" fill="#e09830"/></g>
<g><polygon points="589.0,269.0 593.75,270.5 589.0,272.0 584.25,270.5" fill="#2b5fb3"/><polygon points="584.25,270.5 589.0,272.0 589.0,287.0 584.25,285.5" fill="#003d7a"/><polygon points="593.75,270.5 589.0,272.0 589.0,287.0 593.75,285.5" fill="#c48520"/></g>
<g><polygon points="579.5,279.0 584.25,280.5 579.5,282.0 574.75,280.5" fill="#1a4785"/><polygon points="574.75,280.5 579.5,282.0 579.5,290.0 574.75,288.5" fill="#002955"/><polygon points="584.25,280.5 579.5,282.0 579.5,290.0 584.25,288.5" fill="#a06e18"/></g>
<g><polygon points="551.0,289.0 555.75,290.5 551.0,292.0 546.25,290.5" fill="#1a4785"/><polygon points="546.25,290.5 551.0,292.0 551.0,299.0 546.25,297.5" fill="#002955"/><polygon points="555.75,290.5 551.0,292.0 551.0,299.0 555.75,297.5" fill="#a06e18"/></g>
<text x="18" y="32" font-family="-apple-system,BlinkMacSystemFont,sans-serif" font-size="20" font-weight="bold" fill="#e6edf3">891 contributions</text>
<text x="18" y="50" font-family="-apple-system,BlinkMacSystemFont,sans-serif" font-size="12" fill="#8b949e">in the last year</text>
</svg>